<svg xmlns="http://www.w3.org/2000/svg" xmlns:xlink="http://www.w3.org/1999/xlink" style="margin:auto;background:#f1f2f3;display:block;z-index:1;position:relative" width="2000" height="500" preserveAspectRatio="xMidYMid" viewBox="0 0 2000 500">
<g transform=""><path id="path0" d="M 1998.0255342467399 165.13412230559328
c 0 28.70004909699268 -7.022352438625868 8.24363112360428 -15.265983562230147 8.24363112360428
S 1967.4935671222797 193.83417140258595 1967.4935671222797 165.13412230559328
s 7.022352438625868 -8.24363112360428 15.265983562230147 -8.24363112360428
S 1998.0255342467399 136.4340732086006 1998.0255342467399 165.13412230559328
z" fill="none" stroke="none"></path>
<circle cx="0" cy="0" r="5.451385921784214" fill="#1d3f72">
  <animateMotion begin="-14.960687333389679s" dur="20s" repeatCount="indefinite">
    <mpath xlink:href="#path0"></mpath>
  </animateMotion>
</circle><path id="path1" d="M 1811.4316754183105 15.256013872854655
c 0 29.82538763450562 -7.2977012297194594 8.56686666097502 -15.86456789069448 8.56686666097502
S 1779.7025396369218 45.081401507360276 1779.7025396369218 15.256013872854655
s 7.2977012297194594 -8.56686666097502 15.86456789069448 -8.56686666097502
S 1811.4316754183105 -14.569373761650965 1811.4316754183105 15.256013872854655
z" fill="none" stroke="none"></path>
<circle cx="0" cy="0" r="8.181740759373064" fill="#71c2cc">
  <animateMotion begin="-19.41754130274514s" dur="20s" repeatCount="indefinite">
    <mpath xlink:href="#path1"></mpath>
  </animateMotion>
</circle><path id="path2" d="M 1190.490232216392 253.309327211288
c 0 26.039665562124952 -6.371407531158232 7.479478406142274 -13.850885937300506 7.479478406142274
S 1162.788460341791 279.348992773413 1162.788460341791 253.309327211288
s 6.371407531158232 -7.479478406142274 13.850885937300506 -7.479478406142274
S 1190.490232216392 227.26966164916306 1190.490232216392 253.309327211288
z" fill="none" stroke="none"></path>
<circle cx="0" cy="0" r="6.225353393225767" fill="#785471">
  <animateMotion begin="-11.54909734296449s" dur="20s" repeatCount="indefinite">
    <mpath xlink:href="#path2"></mpath>
  </animateMotion>
</circle><path id="path3" d="M 1310.9309609330105 450.33516311863457
c 0 34.207657474977715 -8.369958743877525 9.825603742812747 -18.195562486690275 9.825603742812747
S 1274.53983595963 484.5428205936123 1274.53983595963 450.33516311863457
s 8.369958743877525 -9.825603742812747 18.195562486690275 -9.825603742812747
S 1310.9309609330105 416.12750564365683 1310.9309609330105 450.33516311863457
z" fill="none" stroke="none"></path>
<circle cx="0" cy="0" r="8.664335856086037" fill="#eee7d8">
  <animateMotion begin="-6.452336582373279s" dur="20s" repeatCount="indefinite">
    <mpath xlink:href="#path3"></mpath>
  </animateMotion>
</circle><path id="path4" d="M 938.5789136813855 486.1538698553426
c 0 19.567015245165276 -4.787673942965972 5.6203128895687495 -10.407986832534721 5.6203128895687495
S 917.7629400163162 505.72088510050787 917.7629400163162 486.1538698553426
s 4.787673942965972 -5.6203128895687495 10.407986832534721 -5.6203128895687495
S 938.5789136813855 466.5868546101773 938.5789136813855 486.1538698553426
z" fill="none" stroke="none"></path>
<circle cx="0" cy="0" r="8.9299719869218" fill="#785471">
  <animateMotion begin="-12.328763213753806s" dur="20s" repeatCount="indefinite">
    <mpath xlink:href="#path4"></mpath>
  </animateMotion>
</circle><path id="path5" d="M 1458.8327118120471 206.2937348990886
c 0 34.54503245145245 -8.452507940249003 9.922509321161874 -18.37501726141088 9.922509321161874
S 1422.0826772892253 240.83876735054105 1422.0826772892253 206.2937348990886
s 8.452507940249003 -9.922509321161874 18.37501726141088 -9.922509321161874
S 1458.8327118120471 171.74870244763616 1458.8327118120471 206.2937348990886
z" fill="none" stroke="none"></path>
<circle cx="0" cy="0" r="6.414912335119012" fill="#5699d2">
  <animateMotion begin="-5.787409801347563s" dur="20s" repeatCount="indefinite">
    <mpath xlink:href="#path5"></mpath>
  </animateMotion>
</circle><path id="path6" d="M 1940.4099341585934 201.6733060135613
c 0 28.88702764329563 -7.068102508465952 8.297337727329596 -15.36544023579555 8.297337727329596
S 1909.6790536870021 230.56033365685693 1909.6790536870021 201.6733060135613
s 7.068102508465952 -8.297337727329596 15.36544023579555 -8.297337727329596
S 1940.4099341585934 172.78627837026568 1940.4099341585934 201.6733060135613
z" fill="none" stroke="none"></path>
<circle cx="0" cy="0" r="6.508938468421947" fill="#785471">
  <animateMotion begin="-5.2036448118840894s" dur="20s" repeatCount="indefinite">
    <mpath xlink:href="#path6"></mpath>
  </animateMotion>
</circle><path id="path7" d="M 1173.9764333819326 162.3136488278617
c 0 36.46395696792917 -8.922032024067775 10.473689767383911 -19.395721791451688 10.473689767383911
S 1135.1849897990292 198.77760579579086 1135.1849897990292 162.3136488278617
s 8.922032024067775 -10.473689767383911 19.395721791451688 -10.473689767383911
S 1173.9764333819326 125.84969185993253 1173.9764333819326 162.3136488278617
z" fill="none" stroke="none"></path>
<circle cx="0" cy="0" r="8.486156198115932" fill="#1d3f72">
  <animateMotion begin="-6.959995286476279s" dur="20s" repeatCount="indefinite">
    <mpath xlink:href="#path7"></mpath>
  </animateMotion>
</circle><path id="path8" d="M 474.3730888184674 64.06250383549163
c 0 23.446332607406845 -5.736868616705929 6.734584897872179 -12.471453514578108 6.734584897872179
S 449.4301817893112 87.50883644289847 449.4301817893112 64.06250383549163
s 5.736868616705929 -6.734584897872179 12.471453514578108 -6.734584897872179
S 474.3730888184674 40.61617122808478 474.3730888184674 64.06250383549163
z" fill="none" stroke="none"></path>
<circle cx="0" cy="0" r="9.508282572645346" fill="#5699d2">
  <animateMotion begin="-7.999058376159791s" dur="20s" repeatCount="indefinite">
    <mpath xlink:href="#path8"></mpath>
  </animateMotion>
</circle><path id="path9" d="M 620.4943165279585 423.29403831791734
c 0 25.790614069240913 -6.310469399920648 7.407942339037284 -13.718411738957933 7.407942339037284
S 593.0574930500427 449.08465238715826 593.0574930500427 423.29403831791734
s 6.310469399920648 -7.407942339037284 13.718411738957933 -7.407942339037284
S 620.4943165279585 397.5034242486764 620.4943165279585 423.29403831791734
z" fill="none" stroke="none"></path>
<circle cx="0" cy="0" r="5.573060521520255" fill="#5699d2">
  <animateMotion begin="-13.03222463534559s" dur="20s" repeatCount="indefinite">
    <mpath xlink:href="#path9"></mpath>
  </animateMotion>
</circle><path id="path10" d="M 712.8511600686537 366.2835671417596
c 0 35.76266468577924 -8.750439231626835 10.272254750170633 -19.02269398179747 10.272254750170633
S 674.8057721050587 402.0462318275388 674.8057721050587 366.2835671417596
s 8.750439231626835 -10.272254750170633 19.02269398179747 -10.272254750170633
S 712.8511600686537 330.5209024559804 712.8511600686537 366.2835671417596
z" fill="none" stroke="none"></path>
<circle cx="0" cy="0" r="7.6954519477155205" fill="#71c2cc">
  <animateMotion begin="-17.247751291473804s" dur="20s" repeatCount="indefinite">
    <mpath xlink:href="#path10"></mpath>
  </animateMotion>
</circle><path id="path11" d="M 1288.821607243431 400.60094508255685
c 0 34.75759824144344 -8.504518718651052 9.983565452329499 -18.488084170980553 9.983565452329499
S 1251.8454389014698 435.35854332400027 1251.8454389014698 400.60094508255685
s 8.504518718651052 -9.983565452329499 18.488084170980553 -9.983565452329499
S 1288.821607243431 365.84334684111343 1288.821607243431 400.60094508255685
z" fill="none" stroke="none"></path>
<circle cx="0" cy="0" r="6.893187143192289" fill="#1d3f72">
  <animateMotion begin="-16.469022625279848s" dur="20s" repeatCount="indefinite">
    <mpath xlink:href="#path11"></mpath>
  </animateMotion>
</circle><path id="path12" d="M 1086.887444681138 486.94827667527824
c 0 21.34939895821792 -5.223789106798002 6.132274168849828 -11.35606327564783 6.132274168849828
S 1064.1753181298425 508.29767563349617 1064.1753181298425 486.94827667527824
s 5.223789106798002 -6.132274168849828 11.35606327564783 -6.132274168849828
S 1086.887444681138 465.5988777170603 1086.887444681138 486.94827667527824
z" fill="none" stroke="none"></path>
<circle cx="0" cy="0" r="9.7494931283428" fill="#1d3f72">
  <animateMotion begin="-9.814720250365326s" dur="20s" repeatCount="indefinite">
    <mpath xlink:href="#path12"></mpath>
  </animateMotion>
</circle><path id="path13" d="M 1436.9060516499517 376.9342261017586
c 0 21.96969880880555 -5.375564602154548 6.310445402529254 -11.686010004683801 6.310445402529254
S 1413.534031640584 398.90392491056417 1413.534031640584 376.9342261017586
s 5.375564602154548 -6.310445402529254 11.686010004683801 -6.310445402529254
S 1436.9060516499517 354.96452729295305 1436.9060516499517 376.9342261017586
z" fill="none" stroke="none"></path>
<circle cx="0" cy="0" r="7.9574070726187625" fill="#4996a2">
  <animateMotion begin="-1.1435758636210336s" dur="20s" repeatCount="indefinite">
    <mpath xlink:href="#path13"></mpath>
  </animateMotion>
</circle><path id="path14" d="M 471.1880755953715 19.70866848544684
c 0 28.23257427766573 -6.907970301982039 8.109356441457178 -15.017326743439217 8.109356441457178
S 441.15342210849303 47.94124276311257 441.15342210849303 19.70866848544684
s 6.907970301982039 -8.109356441457178 15.017326743439217 -8.109356441457178
S 471.1880755953715 -8.52390579221889 471.1880755953715 19.70866848544684
z" fill="none" stroke="none"></path>
<circle cx="0" cy="0" r="5.726623889327288" fill="#5699d2">
  <animateMotion begin="-0.8668453394780151s" dur="20s" repeatCount="indefinite">
    <mpath xlink:href="#path14"></mpath>
  </animateMotion>
</circle><path id="path15" d="M 1514.7867716825729 37.31509138073585
c 0 32.7384739979904 -8.010477680359353 9.403604233465327 -17.41408191382468 9.403604233465327
S 1479.9586078549235 70.05356537872625 1479.9586078549235 37.31509138073585
s 8.010477680359353 -9.403604233465327 17.41408191382468 -9.403604233465327
S 1514.7867716825729 4.576617382745454 1514.7867716825729 37.31509138073585
z" fill="none" stroke="none"></path>
<circle cx="0" cy="0" r="8.935771275509222" fill="#785471">
  <animateMotion begin="-14.183655927195456s" dur="20s" repeatCount="indefinite">
    <mpath xlink:href="#path15"></mpath>
  </animateMotion>
</circle><path id="path16" d="M 1460.7709508746264 101.6327072133761
c 0 24.713365959853874 -6.046887415708926 7.098520009745262 -13.145407425454188 7.098520009745262
S 1434.4801360237182 126.34607317322997 1434.4801360237182 101.6327072133761
s 6.046887415708926 -7.098520009745262 13.145407425454188 -7.098520009745262
S 1460.7709508746264 76.91934125352222 1460.7709508746264 101.6327072133761
z" fill="none" stroke="none"></path>
<circle cx="0" cy="0" r="6.0345841525960395" fill="#5699d2">
  <animateMotion begin="-11.112520747745243s" dur="20s" repeatCount="indefinite">
    <mpath xlink:href="#path16"></mpath>
  </animateMotion>
</circle><path id="path17" d="M 643.4808898972647 188.97139405594226
c 0 37.57456168840368 -9.193775732268985 10.792693250924463 -19.986468983193447 10.792693250924463
S 603.5079519308779 226.54595574434595 603.5079519308779 188.97139405594226
s 9.193775732268985 -10.792693250924463 19.986468983193447 -10.792693250924463
S 643.4808898972647 151.39683236753856 643.4808898972647 188.97139405594226
z" fill="none" stroke="none"></path>
<circle cx="0" cy="0" r="5.760719976260446" fill="#71c2cc">
  <animateMotion begin="-17.183346640719364s" dur="20s" repeatCount="indefinite">
    <mpath xlink:href="#path17"></mpath>
  </animateMotion>
</circle><path id="path18" d="M 972.2511348560313 123.3119135441398
c 0 23.50608983999024 -5.751490067231654 6.751749209358898 -12.503239276590552 6.751749209358898
S 947.2446563028502 146.81800338413004 947.2446563028502 123.3119135441398
s 5.751490067231654 -6.751749209358898 12.503239276590552 -6.751749209358898
S 972.2511348560313 99.80582370414956 972.2511348560313 123.3119135441398
z" fill="none" stroke="none"></path>
<circle cx="0" cy="0" r="9.753953490446257" fill="#d8ebf9">
  <animateMotion begin="-5.254530953778929s" dur="20s" repeatCount="indefinite">
    <mpath xlink:href="#path18"></mpath>
  </animateMotion>
</circle><path id="path19" d="M 669.6871048465835 291.80290375945555
c 0 27.28870969525864 -6.677024712669666 7.838246401829609 -14.515271114499274 7.838246401829609
S 640.656562617585 319.0916134547142 640.656562617585 291.80290375945555
s 6.677024712669666 -7.838246401829609 14.515271114499274 -7.838246401829609
S 669.6871048465835 264.5141940641969 669.6871048465835 291.80290375945555
z" fill="none" stroke="none"></path>
<circle cx="0" cy="0" r="7.949989198403273" fill="#e8cdc5">
  <animateMotion begin="-5.715402482942458s" dur="20s" repeatCount="indefinite">
    <mpath xlink:href="#path19"></mpath>
  </animateMotion>
</circle><path id="path20" d="M 107.21506359969625 287.8998471325869
c 0 35.843810412145885 -8.770294037014416 10.295562565190838 -19.065856602205255 10.295562565190838
S 69.08335039528573 323.7436575447328 69.08335039528573 287.8998471325869
s 8.770294037014416 -10.295562565190838 19.065856602205255 -10.295562565190838
S 107.21506359969625 252.056036720441 107.21506359969625 287.8998471325869
z" fill="none" stroke="none"></path>
<circle cx="0" cy="0" r="9.893624940470785" fill="#d8ebf9">
  <animateMotion begin="-1.4573348737942915s" dur="20s" repeatCount="indefinite">
    <mpath xlink:href="#path20"></mpath>
  </animateMotion>
</circle><path id="path21" d="M 2002.0140708303998 310.87389504675264
c 0 20.783459929255688 -5.0853146635412845 5.969717213722379 -11.055031877263664 5.969717213722379
S 1979.9040070758724 331.6573549760083 1979.9040070758724 310.87389504675264
s 5.0853146635412845 -5.969717213722379 11.055031877263664 -5.969717213722379
S 2002.0140708303998 290.09043511749695 2002.0140708303998 310.87389504675264
z" fill="none" stroke="none"></path>
<circle cx="0" cy="0" r="7.5103546189084245" fill="#eee7d8">
  <animateMotion begin="-2.135849639103604s" dur="20s" repeatCount="indefinite">
    <mpath xlink:href="#path21"></mpath>
  </animateMotion>
</circle><path id="path22" d="M 1209.23818990147 326.5011385341557
c 0 33.815881527803604 -8.274098671696626 9.713072353730823 -17.98717102542745 9.713072353730823
S 1173.263847850615 360.3170200619593 1173.263847850615 326.5011385341557
s 8.274098671696626 -9.713072353730823 17.98717102542745 -9.713072353730823
S 1209.23818990147 292.6852570063521 1209.23818990147 326.5011385341557
z" fill="none" stroke="none"></path>
<circle cx="0" cy="0" r="7.8037556789051274" fill="#1d3f72">
  <animateMotion begin="-9.760781044103863s" dur="20s" repeatCount="indefinite">
    <mpath xlink:href="#path22"></mpath>
  </animateMotion>
</circle><path id="path23" d="M 1868.4528217114898 397.79867215086256
c 0 33.31842206839598 -8.152379867799016 9.570185062198847 -17.722564929997866 9.570185062198847
S 1833.0076918514942 431.11709421925855 1833.0076918514942 397.79867215086256
s 8.152379867799016 -9.570185062198847 17.722564929997866 -9.570185062198847
S 1868.4528217114898 364.48025008246657 1868.4528217114898 397.79867215086256
z" fill="none" stroke="none"></path>
<circle cx="0" cy="0" r="5.812270027675338" fill="#5699d2">
  <animateMotion begin="-0.15943798195479975s" dur="20s" repeatCount="indefinite">
    <mpath xlink:href="#path23"></mpath>
  </animateMotion>
</circle><path id="path24" d="M 1631.761536018981 488.89229597929716
c 0 22.35078975445704 -5.468810259069275 6.41990769542915 -11.888717954498425 6.41990769542915
S 1607.9841001099842 511.2430857337542 1607.9841001099842 488.89229597929716
s 5.468810259069275 -6.41990769542915 11.888717954498425 -6.41990769542915
S 1631.761536018981 466.54150622484013 1631.761536018981 488.89229597929716
z" fill="none" stroke="none"></path>
<circle cx="0" cy="0" r="7.363792373323622" fill="#785471">
  <animateMotion begin="-17.591414011671574s" dur="20s" repeatCount="indefinite">
    <mpath xlink:href="#path24"></mpath>
  </animateMotion>
</circle><path id="path25" d="M 1821.6409520922757 141.09690163653414
c 0 23.542997973709706 -5.76052078080131 6.762350481810235 -12.522871262611545 6.762350481810235
S 1796.5952095670527 164.63989961024384 1796.5952095670527 141.09690163653414
s 5.76052078080131 -6.762350481810235 12.522871262611545 -6.762350481810235
S 1821.6409520922757 117.55390366282444 1821.6409520922757 141.09690163653414
z" fill="none" stroke="none"></path>
<circle cx="0" cy="0" r="8.350854234683192" fill="#785471">
  <animateMotion begin="-2.725666880279225s" dur="20s" repeatCount="indefinite">
    <mpath xlink:href="#path25"></mpath>
  </animateMotion>
</circle><path id="path26" d="M 399.7880535344846 38.65879684188595
c 0 34.148459199473535 -8.355474059445651 9.808599982827504 -18.164074042273157 9.808599982827504
S 363.4599054499383 72.8072560413595 363.4599054499383 38.65879684188595
s 8.355474059445651 -9.808599982827504 18.164074042273157 -9.808599982827504
S 399.7880535344846 4.510337642412416 399.7880535344846 38.65879684188595
z" fill="none" stroke="none"></path>
<circle cx="0" cy="0" r="8.825934043262725" fill="#e8cdc5">
  <animateMotion begin="-12.629367395645708s" dur="20s" repeatCount="indefinite">
    <mpath xlink:href="#path26"></mpath>
  </animateMotion>
</circle><path id="path27" d="M 1220.9214893435983 58.458328685768336
c 0 18.95695822943192 -4.638404673158874 5.445083746751722 -10.083488419910596 5.445083746751722
S 1200.7545125037773 77.41528691520026 1200.7545125037773 58.458328685768336
s 4.638404673158874 -5.445083746751722 10.083488419910596 -5.445083746751722
S 1220.9214893435983 39.50137045633642 1220.9214893435983 58.458328685768336
z" fill="none" stroke="none"></path>
<circle cx="0" cy="0" r="8.215455812545661" fill="#e8cdc5">
  <animateMotion begin="-19.773625104815512s" dur="20s" repeatCount="indefinite">
    <mpath xlink:href="#path27"></mpath>
  </animateMotion>
</circle><path id="path28" d="M 1126.5557040639376 282.43990996876835
c 0 30.736166294041812 -7.520551327265549 8.828473297224775 -16.349024624490326 8.828473297224775
S 1093.857654814957 313.17607626281017 1093.857654814957 282.43990996876835
s 7.520551327265549 -8.828473297224775 16.349024624490326 -8.828473297224775
S 1126.5557040639376 251.70374367472652 1126.5557040639376 282.43990996876835
z" fill="none" stroke="none"></path>
<circle cx="0" cy="0" r="7.034308157358746" fill="#5699d2">
  <animateMotion begin="-8.020549952433154s" dur="20s" repeatCount="indefinite">
    <mpath xlink:href="#path28"></mpath>
  </animateMotion>
</circle><path id="path29" d="M 1049.434783636016 157.7098152118288
c 0 32.61142070816022 -7.979390173273244 9.367110203407723 -17.346500376680968 9.367110203407723
S 1014.741782882654 190.32123591998902 1014.741782882654 157.7098152118288
s 7.979390173273244 -9.367110203407723 17.346500376680968 -9.367110203407723
S 1049.434783636016 125.0983945036686 1049.434783636016 157.7098152118288
z" fill="none" stroke="none"></path>
<circle cx="0" cy="0" r="6.11529096870642" fill="#4996a2">
  <animateMotion begin="-1.3836547175159275s" dur="20s" repeatCount="indefinite">
    <mpath xlink:href="#path29"></mpath>
  </animateMotion>
</circle><path id="path30" d="M 443.84261488669 135.60274091842558
c 0 30.759138929756666 -7.526172291323439 8.835071820249256 -16.361244111572695 8.835071820249256
S 411.12012666354457 166.36187984818224 411.12012666354457 135.60274091842558
s 7.526172291323439 -8.835071820249256 16.361244111572695 -8.835071820249256
S 443.84261488669 104.84360198866892 443.84261488669 135.60274091842558
z" fill="none" stroke="none"></path>
<circle cx="0" cy="0" r="8.028396750719265" fill="#1d3f72">
  <animateMotion begin="-18.700038439116383s" dur="20s" repeatCount="indefinite">
    <mpath xlink:href="#path30"></mpath>
  </animateMotion>
</circle><path id="path31" d="M 247.2335885875831 449.4210433429479
c 0 29.896688804015845 -7.315147260557068 8.587346784132212 -15.902494044689279 8.587346784132212
S 215.42860049820453 479.31773214696375 215.42860049820453 449.4210433429479
s 7.315147260557068 -8.587346784132212 15.902494044689279 -8.587346784132212
S 247.2335885875831 419.524354538932 247.2335885875831 449.4210433429479
z" fill="none" stroke="none"></path>
<circle cx="0" cy="0" r="5.860972144339871" fill="#785471">
  <animateMotion begin="-15.822201362445023s" dur="20s" repeatCount="indefinite">
    <mpath xlink:href="#path31"></mpath>
  </animateMotion>
</circle><path id="path32" d="M 1203.9093982166255 18.300291921951537
c 0 32.909769429664735 -8.052390392364774 9.452806112776042 -17.505196505140816 9.452806112776042
S 1168.8990052063436 51.210061351616275 1168.8990052063436 18.300291921951537
s 8.052390392364774 -9.452806112776042 17.505196505140816 -9.452806112776042
S 1203.9093982166255 -14.609477507713198 1203.9093982166255 18.300291921951537
z" fill="none" stroke="none"></path>
<circle cx="0" cy="0" r="8.088790599629293" fill="#785471">
  <animateMotion begin="-6.141731328957887s" dur="20s" repeatCount="indefinite">
    <mpath xlink:href="#path32"></mpath>
  </animateMotion>
</circle><path id="path33" d="M 1860.7102741707315 489.860756807574
c 0 31.37312550576674 -7.676403049283351 9.011429666550022 -16.687832715833373 9.011429666550022
S 1827.3346087390648 521.2338823133407 1827.3346087390648 489.860756807574
s 7.676403049283351 -9.011429666550022 16.687832715833373 -9.011429666550022
S 1860.7102741707315 458.48763130180726 1860.7102741707315 489.860756807574
z" fill="none" stroke="none"></path>
<circle cx="0" cy="0" r="5.205247627782522" fill="#71c2cc">
  <animateMotion begin="-9.532826952310586s" dur="20s" repeatCount="indefinite">
    <mpath xlink:href="#path33"></mpath>
  </animateMotion>
</circle><path id="path34" d="M 406.525734753663 484.92013465785436
c 0 36.34524722397822 -8.892986022888287 10.439592287738424 -19.33257831062671 10.439592287738424
S 367.86057813240956 521.2653818818326 367.86057813240956 484.92013465785436
s 8.892986022888287 -10.439592287738424 19.33257831062671 -10.439592287738424
S 406.525734753663 448.57488743387614 406.525734753663 484.92013465785436
z" fill="none" stroke="none"></path>
<circle cx="0" cy="0" r="6.350090831668406" fill="#e8cdc5">
  <animateMotion begin="-4.358115174619899s" dur="20s" repeatCount="indefinite">
    <mpath xlink:href="#path34"></mpath>
  </animateMotion>
</circle><path id="path35" d="M 1262.8120546098373 199.07410642210735
c 0 31.019645070784552 -7.589913155617496 8.909898052246627 -16.499811207864123 8.909898052246627
S 1229.8124321941093 230.0937514928919 1229.8124321941093 199.07410642210735
s 7.589913155617496 -8.909898052246627 16.499811207864123 -8.909898052246627
S 1262.8120546098373 168.0544613513228 1262.8120546098373 199.07410642210735
z" fill="none" stroke="none"></path>
<circle cx="0" cy="0" r="8.229394278056473" fill="#5699d2">
  <animateMotion begin="-5.457832209056486s" dur="20s" repeatCount="indefinite">
    <mpath xlink:href="#path35"></mpath>
  </animateMotion>
</circle><path id="path36" d="M 1734.8145667347305 314.5202630351598
c 0 28.28977202024916 -6.921965494316283 8.125785580284333 -15.047751074600617 8.125785580284333
S 1704.7190645855292 342.810035055409 1704.7190645855292 314.5202630351598
s 6.921965494316283 -8.125785580284333 15.047751074600617 -8.125785580284333
S 1734.8145667347305 286.2304910149106 1734.8145667347305 314.5202630351598
z" fill="none" stroke="none"></path>
<circle cx="0" cy="0" r="9.118002221164613" fill="#785471">
  <animateMotion begin="-14.384900988770672s" dur="20s" repeatCount="indefinite">
    <mpath xlink:href="#path36"></mpath>
  </animateMotion>
</circle><path id="path37" d="M 809.4191415026811 184.63215281283175
c 0 28.688883957326922 -7.019620542750204 8.240424115402414 -15.26004465815262 8.240424115402414
S 778.8990521863758 213.32103677015868 778.8990521863758 184.63215281283175
s 7.019620542750204 -8.240424115402414 15.26004465815262 -8.240424115402414
S 809.4191415026811 155.9432688555048 809.4191415026811 184.63215281283175
z" fill="none" stroke="none"></path>
<circle cx="0" cy="0" r="6.1251658213922475" fill="#5699d2">
  <animateMotion begin="-18.769340002428173s" dur="20s" repeatCount="indefinite">
    <mpath xlink:href="#path37"></mpath>
  </animateMotion>
</circle><path id="path38" d="M 1666.5805988971968 253.95117053253188
c 0 22.733340016967134 -5.562412982874936 6.529789153809708 -12.092202136684644 6.529789153809708
S 1642.3961946238276 276.684510549499 1642.3961946238276 253.95117053253188
s 5.562412982874936 -6.529789153809708 12.092202136684644 -6.529789153809708
S 1666.5805988971968 231.21783051556474 1666.5805988971968 253.95117053253188
z" fill="none" stroke="none"></path>
<circle cx="0" cy="0" r="7.631147027908631" fill="#71c2cc">
  <animateMotion begin="-0.3997929709705783s" dur="20s" repeatCount="indefinite">
    <mpath xlink:href="#path38"></mpath>
  </animateMotion>
</circle><path id="path39" d="M 833.8304379986739 113.43400156927655
c 0 29.644916143439985 -7.253543311692762 8.515029105030635 -15.768572416723396 8.515029105030635
S 802.2932931652272 143.07891771271653 802.2932931652272 113.43400156927655
s 7.253543311692762 -8.515029105030635 15.768572416723396 -8.515029105030635
S 833.8304379986739 83.78908542583656 833.8304379986739 113.43400156927655
z" fill="none" stroke="none"></path>
<circle cx="0" cy="0" r="8.068781950697204" fill="#71c2cc">
  <animateMotion begin="-14.36849810941002s" dur="20s" repeatCount="indefinite">
    <mpath xlink:href="#path39"></mpath>
  </animateMotion>
</circle><path id="path40" d="M 1693.8503133091106 112.72260360865573
c 0 28.561902361905467 -6.988550577913039 8.203950678419655 -15.192501256332696 8.203950678419655
S 1663.4653107964452 141.2845059705612 1663.4653107964452 112.72260360865573
s 6.988550577913039 -8.203950678419655 15.192501256332696 -8.203950678419655
S 1693.8503133091106 84.16070124675026 1693.8503133091106 112.72260360865573
z" fill="none" stroke="none"></path>
<circle cx="0" cy="0" r="8.957646621745788" fill="#e8cdc5">
  <animateMotion begin="-10.12290806682612s" dur="20s" repeatCount="indefinite">
    <mpath xlink:href="#path40"></mpath>
  </animateMotion>
</circle><path id="path41" d="M 1558.9467981299179 299.1001762567165
c 0 33.62529140893874 -8.227464919208415 9.658328383418576 -17.88579330262699 9.658328383418576
S 1523.1752115246638 332.72546766565523 1523.1752115246638 299.1001762567165
s 8.227464919208415 -9.658328383418576 17.88579330262699 -9.658328383418576
S 1558.9467981299179 265.4748848477778 1558.9467981299179 299.1001762567165
z" fill="none" stroke="none"></path>
<circle cx="0" cy="0" r="7.416204344807759" fill="#1d3f72">
  <animateMotion begin="-3.8173375738945214s" dur="20s" repeatCount="indefinite">
    <mpath xlink:href="#path41"></mpath>
  </animateMotion>
</circle><path id="path42" d="M 428.5102911981128 45.44884157663869
c 0 19.565194165476818 -4.787228359637944 5.619789813488022 -10.407018173125966 5.619789813488022
S 407.6962548518609 65.01403574211551 407.6962548518609 45.44884157663869
s 4.787228359637944 -5.619789813488022 10.407018173125966 -5.619789813488022
S 428.5102911981128 25.883647411161874 428.5102911981128 45.44884157663869
z" fill="none" stroke="none"></path>
<circle cx="0" cy="0" r="8.610581403805368" fill="#e8cdc5">
  <animateMotion begin="-6.940733189732224s" dur="20s" repeatCount="indefinite">
    <mpath xlink:href="#path42"></mpath>
  </animateMotion>
</circle><path id="path43" d="M 961.2221466276992 424.8681756647292
c 0 25.3324325077683 -6.198361145517775 7.276336996912171 -13.474698142429947 7.276336996912171
S 934.2727503428393 450.20060817249754 934.2727503428393 424.8681756647292
s 6.198361145517775 -7.276336996912171 13.474698142429947 -7.276336996912171
S 961.2221466276992 399.5357431569609 961.2221466276992 424.8681756647292
z" fill="none" stroke="none"></path>
<circle cx="0" cy="0" r="9.68029327786722" fill="#eee7d8">
  <animateMotion begin="-13.29326404475346s" dur="20s" repeatCount="indefinite">
    <mpath xlink:href="#path43"></mpath>
  </animateMotion>
</circle><path id="path44" d="M 830.3528024683527 81.57557073615949
c 0 36.146747427728194 -8.844416923805834 10.382576388815545 -19.226993312621378 10.382576388815545
S 791.8988158431099 117.72231816388768 791.8988158431099 81.57557073615949
s 8.844416923805834 -10.382576388815545 19.226993312621378 -10.382576388815545
S 830.3528024683527 45.4288233084313 830.3528024683527 81.57557073615949
z" fill="none" stroke="none"></path>
<circle cx="0" cy="0" r="7.4024950000281695" fill="#eee7d8">
  <animateMotion begin="-18.136023661437246s" dur="20s" repeatCount="indefinite">
    <mpath xlink:href="#path44"></mpath>
  </animateMotion>
</circle><path id="path45" d="M 1979.7814657808858 135.47640821844647
c 0 32.14946662052315 -7.8663588539577916 9.234421263341757 -17.100780117299546 9.234421263341757
S 1945.5799055462867 167.62587483896962 1945.5799055462867 135.47640821844647
s 7.8663588539577916 -9.234421263341757 17.100780117299546 -9.234421263341757
S 1979.7814657808858 103.32694159792331 1979.7814657808858 135.47640821844647
z" fill="none" stroke="none"></path>
<circle cx="0" cy="0" r="5.1209354865097865" fill="#d8ebf9">
  <animateMotion begin="-19.122820601252236s" dur="20s" repeatCount="indefinite">
    <mpath xlink:href="#path45"></mpath>
  </animateMotion>
</circle><path id="path46" d="M 642.1941203308785 470.8307983164045
c 0 29.378929986420765 -7.188461592422102 8.438628825886816 -15.627090418308917 8.438628825886816
S 610.9399394942606 500.2097283028253 610.9399394942606 470.8307983164045
s 7.188461592422102 -8.438628825886816 15.627090418308917 -8.438628825886816
S 642.1941203308785 441.45186832998377 642.1941203308785 470.8307983164045
z" fill="none" stroke="none"></path>
<circle cx="0" cy="0" r="6.941241923188024" fill="#eee7d8">
  <animateMotion begin="-19.584380280925252s" dur="20s" repeatCount="indefinite">
    <mpath xlink:href="#path46"></mpath>
  </animateMotion>
</circle><path id="path47" d="M 996.262849293731 426.00672432831567
c 0 23.632127692959806 -5.782329116362505 6.787951571382072 -12.570280687744578 6.787951571382072
S 971.1222879182419 449.63885202127545 971.1222879182419 426.00672432831567
s 5.782329116362505 -6.787951571382072 12.570280687744578 -6.787951571382072
S 996.262849293731 402.3745966353559 996.262849293731 426.00672432831567
z" fill="none" stroke="none"></path>
<circle cx="0" cy="0" r="7.821353066717788" fill="#e8cdc5">
  <animateMotion begin="-4.910770936120894s" dur="20s" repeatCount="indefinite">
    <mpath xlink:href="#path47"></mpath>
  </animateMotion>
</circle><path id="path48" d="M 845.0525109361639 150.04986963527782
c 0 32.07736855994961 -7.848717839136605 9.213712245942974 -17.06243008507958 9.213712245942974
S 810.9276507660048 182.12723819522742 810.9276507660048 150.04986963527782
s 7.848717839136605 -9.213712245942974 17.06243008507958 -9.213712245942974
S 845.0525109361639 117.97250107532821 845.0525109361639 150.04986963527782
z" fill="none" stroke="none"></path>
<circle cx="0" cy="0" r="5.395648247498318" fill="#e8cdc5">
  <animateMotion begin="-12.646356855434275s" dur="20s" repeatCount="indefinite">
    <mpath xlink:href="#path48"></mpath>
  </animateMotion>
</circle><path id="path49" d="M 1600.0332844048614 328.60841865566397
c 0 31.27267612064425 -7.651825008242741 8.982577183589306 -16.63440219183205 8.982577183589306
S 1566.7644800211972 359.8810947763082 1566.7644800211972 328.60841865566397
s 7.651825008242741 -8.982577183589306 16.63440219183205 -8.982577183589306
S 1600.0332844048614 297.33574253501973 1600.0332844048614 328.60841865566397
z" fill="none" stroke="none"></path>
<circle cx="0" cy="0" r="8.88796368270783" fill="#4996a2">
  <animateMotion begin="-15.443452962726688s" dur="20s" repeatCount="indefinite">
    <mpath xlink:href="#path49"></mpath>
  </animateMotion>
</circle><path id="path50" d="M 1864.3279864564067 426.6124781740143
c 0 35.95781734325304 -8.798189349944892 10.328309236891831 -19.12649858683672 10.328309236891831
S 1826.0749892827332 462.57029551726737 1826.0749892827332 426.6124781740143
s 8.798189349944892 -10.328309236891831 19.12649858683672 -10.328309236891831
S 1864.3279864564067 390.65466083076126 1864.3279864564067 426.6124781740143
z" fill="none" stroke="none"></path>
<circle cx="0" cy="0" r="7.144901320312566" fill="#1d3f72">
  <animateMotion begin="-1.5512374251509309s" dur="20s" repeatCount="indefinite">
    <mpath xlink:href="#path50"></mpath>
  </animateMotion>
</circle><path id="path51" d="M 789.4610263919432 147.15367611113362
c 0 33.460724059406864 -8.187198440067636 9.61105903834027 -17.798257478407905 9.61105903834027
S 753.8645114351274 180.61440017054048 753.8645114351274 147.15367611113362
s 8.187198440067636 -9.61105903834027 17.798257478407905 -9.61105903834027
S 789.4610263919432 113.69295205172676 789.4610263919432 147.15367611113362
z" fill="none" stroke="none"></path>
<circle cx="0" cy="0" r="9.191874942295685" fill="#71c2cc">
  <animateMotion begin="-3.5989738047758646s" dur="20s" repeatCount="indefinite">
    <mpath xlink:href="#path51"></mpath>
  </animateMotion>
</circle><path id="path52" d="M 1150.1599147490517 13.126112685235288
c 0 35.21282124137015 -8.615903069696952 10.11432099486164 -18.73022406455859 10.11432099486164
S 1112.6994666199346 48.338933926605435 1112.6994666199346 13.126112685235288
s 8.615903069696952 -10.11432099486164 18.73022406455859 -10.11432099486164
S 1150.1599147490517 -22.086708556134862 1150.1599147490517 13.126112685235288
z" fill="none" stroke="none"></path>
<circle cx="0" cy="0" r="7.626997328688622" fill="#4996a2">
  <animateMotion begin="-19.551940936043238s" dur="20s" repeatCount="indefinite">
    <mpath xlink:href="#path52"></mpath>
  </animateMotion>
</circle><path id="path53" d="M 771.692560377772 442.38265030008466
c 0 22.773838788988833 -5.572322256880246 6.541421779815942 -12.113744036696188 6.541421779815942
S 747.4650723043796 465.1564890890735 747.4650723043796 442.38265030008466
s 5.572322256880246 -6.541421779815942 12.113744036696188 -6.541421779815942
S 771.692560377772 419.60881151109584 771.692560377772 442.38265030008466
z" fill="none" stroke="none"></path>
<circle cx="0" cy="0" r="7.750127782912775" fill="#4996a2">
  <animateMotion begin="-13.715303343084129s" dur="20s" repeatCount="indefinite">
    <mpath xlink:href="#path53"></mpath>
  </animateMotion>
</circle><path id="path54" d="M 1400.4070176365633 293.8115419715381
c 0 26.443910825668052 -6.47031860628048 7.595591407372738 -14.065910013653218 7.595591407372738
S 1372.275197609257 320.25545279720615 1372.275197609257 293.8115419715381
s 6.47031860628048 -7.595591407372738 14.065910013653218 -7.595591407372738
S 1400.4070176365633 267.36763114587 1400.4070176365633 293.8115419715381
z" fill="none" stroke="none"></path>
<circle cx="0" cy="0" r="8.804738182216704" fill="#1d3f72">
  <animateMotion begin="-19.68106475946023s" dur="20s" repeatCount="indefinite">
    <mpath xlink:href="#path54"></mpath>
  </animateMotion>
</circle><path id="path55" d="M 1971.2796551124695 442.9673804318987
c 0 34.58469524556866 -8.462212666468925 9.933901825854829 -18.396114492323754 9.933901825854829
S 1934.4874261278221 477.5520756774673 1934.4874261278221 442.9673804318987
s 8.462212666468925 -9.933901825854829 18.396114492323754 -9.933901825854829
S 1971.2796551124695 408.38268518633004 1971.2796551124695 442.9673804318987
z" fill="none" stroke="none"></path>
<circle cx="0" cy="0" r="6.103466314515201" fill="#785471">
  <animateMotion begin="-4.801423871213699s" dur="20s" repeatCount="indefinite">
    <mpath xlink:href="#path55"></mpath>
  </animateMotion>
</circle><path id="path56" d="M 614.639589897972 214.60060002764553
c 0 23.558239070739454 -5.764249985393695 6.766728243723034 -12.53097822911673 6.766728243723034
S 589.5776334397385 238.158839098385 589.5776334397385 214.60060002764553
s 5.764249985393695 -6.766728243723034 12.53097822911673 -6.766728243723034
S 614.639589897972 191.04236095690607 614.639589897972 214.60060002764553
z" fill="none" stroke="none"></path>
<circle cx="0" cy="0" r="8.977599533285716" fill="#5699d2">
  <animateMotion begin="-0.09981662906312305s" dur="20s" repeatCount="indefinite">
    <mpath xlink:href="#path56"></mpath>
  </animateMotion>
</circle><path id="path57" d="M 1103.9582991652314 414.0764784139166
c 0 21.23650241572764 -5.196165484699315 6.099846438560067 -11.296011923259382 6.099846438560067
S 1081.3662753187127 435.31298082964423 1081.3662753187127 414.0764784139166
s 5.196165484699315 -6.099846438560067 11.296011923259382 -6.099846438560067
S 1103.9582991652314 392.839975998189 1103.9582991652314 414.0764784139166
z" fill="none" stroke="none"></path>
<circle cx="0" cy="0" r="7.6180228310431355" fill="#5699d2">
  <animateMotion begin="-11.984619537305182s" dur="20s" repeatCount="indefinite">
    <mpath xlink:href="#path57"></mpath>
  </animateMotion>
</circle><path id="path58" d="M 404.75311523054506 160.04659182772906
c 0 33.98940939021268 -8.316557616754164 9.762915463146195 -18.07947307990036 9.762915463146195
S 368.59416907074433 194.03600121794173 368.59416907074433 160.04659182772906
s 8.316557616754164 -9.762915463146195 18.07947307990036 -9.762915463146195
S 404.75311523054506 126.05718243751639 404.75311523054506 160.04659182772906
z" fill="none" stroke="none"></path>
<circle cx="0" cy="0" r="9.572797962609773" fill="#eee7d8">
  <animateMotion begin="-8.056137633902928s" dur="20s" repeatCount="indefinite">
    <mpath xlink:href="#path58"></mpath>
  </animateMotion>
</circle><path id="path59" d="M 768.4039677540318 21.12989366366047
c 0 20.522140764892782 -5.02137486800568 5.894657453745799 -10.916032321751478 5.894657453745799
S 746.5719031105289 41.65203442855325 746.5719031105289 21.12989366366047
s 5.02137486800568 -5.894657453745799 10.916032321751478 -5.894657453745799
S 768.4039677540318 0.6077528987676892 768.4039677540318 21.12989366366047
z" fill="none" stroke="none"></path>
<circle cx="0" cy="0" r="7.186617424456977" fill="#e8cdc5">
  <animateMotion begin="-6.876597999633147s" dur="20s" repeatCount="indefinite">
    <mpath xlink:href="#path59"></mpath>
  </animateMotion>
</circle></g>
</svg>