<svg xmlns="http://www.w3.org/2000/svg" xmlns:xlink="http://www.w3.org/1999/xlink" style="margin:auto;background:#f1f2f3;display:block;z-index:1;position:relative" width="2500" height="280" preserveAspectRatio="xMidYMid" viewBox="0 0 2500 280">
<g transform=""><path id="path0" d="M 777.1143324144269 240.55675355223465
c 0 33.40675215585352 -8.173992548772668 9.595556470298352 -17.76954901907102 9.595556470298352
S 741.5752343762848 273.9635057080882 741.5752343762848 240.55675355223465
s 8.173992548772668 -9.595556470298352 17.76954901907102 -9.595556470298352
S 777.1143324144269 207.15000139638113 777.1143324144269 240.55675355223465
z" fill="none" stroke="none"></path>
<circle cx="0" cy="0" r="7.386010206165485" fill="#fefefe">
  <animateMotion begin="-0.7971898309138847s" dur="20s" repeatCount="indefinite">
    <mpath xlink:href="#path0"></mpath>
  </animateMotion>
</circle><path id="path1" d="M 162.51964380839374 52.239052586322174
c 0 28.822076566955705 -7.0522102238295865 8.278681567104298 -15.330891790933885 8.278681567104298
S 131.85786022652596 81.06112915327788 131.85786022652596 52.239052586322174
s 7.0522102238295865 -8.278681567104298 15.330891790933885 -8.278681567104298
S 162.51964380839374 23.41697601936647 162.51964380839374 52.239052586322174
z" fill="none" stroke="none"></path>
<circle cx="0" cy="0" r="4.6354666828052755" fill="#88a2ce">
  <animateMotion begin="-15.37188745481469s" dur="20s" repeatCount="indefinite">
    <mpath xlink:href="#path1"></mpath>
  </animateMotion>
</circle><path id="path2" d="M 923.2059179577277 85.03843248480585
c 0 31.833293864520606 -7.788997434935892 9.14360568448996 -16.932603119425853 9.14360568448996
S 889.340711718876 116.87172634932645 889.340711718876 85.03843248480585
s 7.788997434935892 -9.14360568448996 16.932603119425853 -9.14360568448996
S 923.2059179577277 53.20513862028525 923.2059179577277 85.03843248480585
z" fill="none" stroke="none"></path>
<circle cx="0" cy="0" r="7.86567548780916" fill="#88a2ce">
  <animateMotion begin="-0.06938717055569477s" dur="20s" repeatCount="indefinite">
    <mpath xlink:href="#path2"></mpath>
  </animateMotion>
</circle><path id="path3" d="M 1631.231059732657 179.67992916318713
c 0 34.64623707436443 -8.4772707735147 9.951578734125954 -18.428849507640656 9.951578734125954
S 1594.3733607173756 214.32616623755155 1594.3733607173756 179.67992916318713
s 8.4772707735147 -9.951578734125954 18.428849507640656 -9.951578734125954
S 1631.231059732657 145.0336920888227 1631.231059732657 179.67992916318713
z" fill="none" stroke="none"></path>
<circle cx="0" cy="0" r="7.534989411786122" fill="#88a2ce">
  <animateMotion begin="-15.587016983934072s" dur="20s" repeatCount="indefinite">
    <mpath xlink:href="#path3"></mpath>
  </animateMotion>
</circle><path id="path4" d="M 496.6761360347581 118.23137343039897
c 0 32.699314545154294 -8.00089611211222 9.392356305523043 -17.393252417635264 9.392356305523043
S 461.88963119948755 150.93068797555327 461.88963119948755 118.23137343039897
s 8.00089611211222 -9.392356305523043 17.393252417635264 -9.392356305523043
S 496.6761360347581 85.53205888524468 496.6761360347581 118.23137343039897
z" fill="none" stroke="none"></path>
<circle cx="0" cy="0" r="6.543154280004878" fill="#456caa">
  <animateMotion begin="-4.485493627031256s" dur="20s" repeatCount="indefinite">
    <mpath xlink:href="#path4"></mpath>
  </animateMotion>
</circle><path id="path5" d="M 999.2470426546646 177.0532333435846
c 0 28.70179220550361 -7.022778943899819 8.244131803708484 -15.266910747608303 8.244131803708484
S 968.7132211594479 205.7550255490882 968.7132211594479 177.0532333435846
s 7.022778943899819 -8.244131803708484 15.266910747608303 -8.244131803708484
S 999.2470426546646 148.351441138081 999.2470426546646 177.0532333435846
z" fill="none" stroke="none"></path>
<circle cx="0" cy="0" r="4.550661432396676" fill="#88a2ce">
  <animateMotion begin="-3.759572428688238s" dur="20s" repeatCount="indefinite">
    <mpath xlink:href="#path5"></mpath>
  </animateMotion>
</circle><path id="path6" d="M 530.8105430558476 125.61520740538253
c 0 20.23671442095955 -4.95153650725606 5.81267329112668 -10.76420979838274 5.81267329112668
S 509.28212345908213 145.85192182634208 509.28212345908213 125.61520740538253
s 4.95153650725606 -5.81267329112668 10.76420979838274 -5.81267329112668
S 530.8105430558476 105.37849298442299 530.8105430558476 125.61520740538253
z" fill="none" stroke="none"></path>
<circle cx="0" cy="0" r="4.960891239291096" fill="#c2d2ee">
  <animateMotion begin="-2.4825867399278057s" dur="20s" repeatCount="indefinite">
    <mpath xlink:href="#path6"></mpath>
  </animateMotion>
</circle><path id="path7" d="M 2485.4638917878133 130.5745738662043
c 0 31.178141204099187 -7.6286941244072475 8.95542353734764 -16.584117661754888 8.95542353734764
S 2452.295656464303 161.75271507030348 2452.295656464303 130.5745738662043
s 7.6286941244072475 -8.95542353734764 16.584117661754888 -8.95542353734764
S 2485.4638917878133 99.39643266210511 2485.4638917878133 130.5745738662043
z" fill="none" stroke="none"></path>
<circle cx="0" cy="0" r="7.119060748790547" fill="#88a2ce">
  <animateMotion begin="-19.799488689830515s" dur="20s" repeatCount="indefinite">
    <mpath xlink:href="#path7"></mpath>
  </animateMotion>
</circle><path id="path8" d="M 1330.199695730548 246.34038338831996
c 0 20.79806009660127 -5.088887044913076 5.973910878811004 -11.06279792372408 5.973910878811004
S 1308.0740998831 267.13844348492125 1308.0740998831 246.34038338831996
s 5.088887044913076 -5.973910878811004 11.06279792372408 -5.973910878811004
S 1330.199695730548 225.5423232917187 1330.199695730548 246.34038338831996
z" fill="none" stroke="none"></path>
<circle cx="0" cy="0" r="4.836956973168131" fill="#fefefe">
  <animateMotion begin="-9.585712189919668s" dur="20s" repeatCount="indefinite">
    <mpath xlink:href="#path8"></mpath>
  </animateMotion>
</circle><path id="path9" d="M 1053.2317880487471 234.55045664467764
c 0 30.74622130672663 -7.523011596326727 8.831361439166159 -16.354373035492888 8.831361439166159
S 1020.5230419777613 265.29667795140426 1020.5230419777613 234.55045664467764
s 7.523011596326727 -8.831361439166159 16.354373035492888 -8.831361439166159
S 1053.2317880487471 203.804235337951 1053.2317880487471 234.55045664467764
z" fill="none" stroke="none"></path>
<circle cx="0" cy="0" r="7.850696103589219" fill="#c2d2ee">
  <animateMotion begin="-8.484609145620485s" dur="20s" repeatCount="indefinite">
    <mpath xlink:href="#path9"></mpath>
  </animateMotion>
</circle><path id="path10" d="M 1415.1178600733374 205.2614892091315
c 0 20.78726486612057 -5.086245658731628 5.9708101211197375 -11.057055779851366 5.9708101211197375
S 1393.0037485136345 226.04875407525208 1393.0037485136345 205.2614892091315
s 5.086245658731628 -5.9708101211197375 11.057055779851366 -5.9708101211197375
S 1415.1178600733374 184.47422434301092 1415.1178600733374 205.2614892091315
z" fill="none" stroke="none"></path>
<circle cx="0" cy="0" r="5.824623783927187" fill="#fefefe">
  <animateMotion begin="-8.857718119230405s" dur="20s" repeatCount="indefinite">
    <mpath xlink:href="#path10"></mpath>
  </animateMotion>
</circle><path id="path11" d="M 1771.8458547956284 67.40846003862478
c 0 32.95071124418852 -8.062408070386551 9.46456599567117 -17.526974066057722 9.46456599567117
S 1736.7919066635131 100.35917128281329 1736.7919066635131 67.40846003862478
s 8.062408070386551 -9.46456599567117 17.526974066057722 -9.46456599567117
S 1771.8458547956284 34.45774879443626 1771.8458547956284 67.40846003862478
z" fill="none" stroke="none"></path>
<circle cx="0" cy="0" r="6.4732066524480105" fill="#88a2ce">
  <animateMotion begin="-16.230834184736125s" dur="20s" repeatCount="indefinite">
    <mpath xlink:href="#path11"></mpath>
  </animateMotion>
</circle><path id="path12" d="M 2409.683446685513 196.70933327256031
c 0 21.101593747783213 -5.163155917010785 6.061096076490923 -11.224251993501708 6.061096076490923
S 2387.2349426985097 217.8109270203435 2387.2349426985097 196.70933327256031
s 5.163155917010785 -6.061096076490923 11.224251993501708 -6.061096076490923
S 2409.683446685513 175.60773952477712 2409.683446685513 196.70933327256031
z" fill="none" stroke="none"></path>
<circle cx="0" cy="0" r="5.672326490906069" fill="#fefefe">
  <animateMotion begin="-19.874600752369766s" dur="20s" repeatCount="indefinite">
    <mpath xlink:href="#path12"></mpath>
  </animateMotion>
</circle><path id="path13" d="M 1296.1691323053865 179.15801229501798
c 0 24.666557377568637 -6.035434251958283 7.085074991429289 -13.120509243387573 7.085074991429289
S 1269.9281138186116 203.82456967258662 1269.9281138186116 179.15801229501798
s 6.035434251958283 -7.085074991429289 13.120509243387573 -7.085074991429289
S 1296.1691323053865 154.49145491744935 1296.1691323053865 179.15801229501798
z" fill="none" stroke="none"></path>
<circle cx="0" cy="0" r="6.5425011467311265" fill="#88a2ce">
  <animateMotion begin="-18.927819325429525s" dur="20s" repeatCount="indefinite">
    <mpath xlink:href="#path13"></mpath>
  </animateMotion>
</circle><path id="path14" d="M 2133.2422554907803 13.523871578085469
c 0 22.38405608545974 -5.4769498932507865 6.429462918163968 -11.906412811414755 6.429462918163968
S 2109.429429867951 35.90792766354521 2109.429429867951 13.523871578085469
s 5.4769498932507865 -6.429462918163968 11.906412811414755 -6.429462918163968
S 2133.2422554907803 -8.86018450737427 2133.2422554907803 13.523871578085469
z" fill="none" stroke="none"></path>
<circle cx="0" cy="0" r="5.154831102019016" fill="#fefefe">
  <animateMotion begin="-2.5524282339828153s" dur="20s" repeatCount="indefinite">
    <mpath xlink:href="#path14"></mpath>
  </animateMotion>
</circle><path id="path15" d="M 2100.4205183608906 266.17917063527807
c 0 21.62985650769244 -5.292411698690703 6.212831124549957 -11.50524282324066 6.212831124549957
S 2077.410032714409 287.80902714297054 2077.410032714409 266.17917063527807
s 5.292411698690703 -6.212831124549957 11.50524282324066 -6.212831124549957
S 2100.4205183608906 244.54931412758563 2100.4205183608906 266.17917063527807
z" fill="none" stroke="none"></path>
<circle cx="0" cy="0" r="5.297806043687837" fill="#88a2ce">
  <animateMotion begin="-6.0455141659636125s" dur="20s" repeatCount="indefinite">
    <mpath xlink:href="#path15"></mpath>
  </animateMotion>
</circle><path id="path16" d="M 563.402978773703 40.499450645771574
c 0 30.40016559579352 -7.438338390460116 8.731962458366224 -16.17030084882634 8.731962458366224
S 531.0623770760504 70.8996162415651 531.0623770760504 40.499450645771574
s 7.438338390460116 -8.731962458366224 16.17030084882634 -8.731962458366224
S 563.402978773703 10.099285049978054 563.402978773703 40.499450645771574
z" fill="none" stroke="none"></path>
<circle cx="0" cy="0" r="5.143310648674628" fill="#fefefe">
  <animateMotion begin="-15.909456886280768s" dur="20s" repeatCount="indefinite">
    <mpath xlink:href="#path16"></mpath>
  </animateMotion>
</circle><path id="path17" d="M 198.79908320833817 246.46103848479586
c 0 28.383443624209608 -6.944885142093839 8.152691253762335 -15.097576395856173 8.152691253762335
S 168.60393041662581 274.84448210900547 168.60393041662581 246.46103848479586
s 6.944885142093839 -8.152691253762335 15.097576395856173 -8.152691253762335
S 198.79908320833817 218.07759486058626 198.79908320833817 246.46103848479586
z" fill="none" stroke="none"></path>
<circle cx="0" cy="0" r="6.576214281554985" fill="#88a2ce">
  <animateMotion begin="-19.270300890256742s" dur="20s" repeatCount="indefinite">
    <mpath xlink:href="#path17"></mpath>
  </animateMotion>
</circle><path id="path18" d="M 811.9178700748745 241.51427313171172
c 0 24.98031713278963 -6.112205255895335 7.175197474311915 -13.28740273020725 7.175197474311915
S 785.3430646144599 266.49459026450137 785.3430646144599 241.51427313171172
s 6.112205255895335 -7.175197474311915 13.28740273020725 -7.175197474311915
S 811.9178700748745 216.5339559989221 811.9178700748745 241.51427313171172
z" fill="none" stroke="none"></path>
<circle cx="0" cy="0" r="6.9498249461556885" fill="#fefefe">
  <animateMotion begin="-18.767891527047652s" dur="20s" repeatCount="indefinite">
    <mpath xlink:href="#path18"></mpath>
  </animateMotion>
</circle><path id="path19" d="M 1244.3894328367137 121.53153248295409
c 0 31.405889498252034 -7.6844197708489 9.020840600561755 -16.705260371410656 9.020840600561755
S 1210.9789120938922 152.9374219812061 1210.9789120938922 121.53153248295409
s 7.6844197708489 -9.020840600561755 16.705260371410656 -9.020840600561755
S 1244.3894328367137 90.12564298470205 1244.3894328367137 121.53153248295409
z" fill="none" stroke="none"></path>
<circle cx="0" cy="0" r="5.554433754655312" fill="#fefefe">
  <animateMotion begin="-6.227680113226657s" dur="20s" repeatCount="indefinite">
    <mpath xlink:href="#path19"></mpath>
  </animateMotion>
</circle><path id="path20" d="M 1823.928042931059 267.86904490920676
c 0 24.631209087856273 -6.026785202347811 7.074921759277866 -13.101706961625677 7.074921759277866
S 1797.7246290078076 292.50025399706306 1797.7246290078076 267.86904490920676
s 6.026785202347811 -7.074921759277866 13.101706961625677 -7.074921759277866
S 1823.928042931059 243.2378358213505 1823.928042931059 267.86904490920676
z" fill="none" stroke="none"></path>
<circle cx="0" cy="0" r="5.317166834453368" fill="#456caa">
  <animateMotion begin="-0.12892307294969374s" dur="20s" repeatCount="indefinite">
    <mpath xlink:href="#path20"></mpath>
  </animateMotion>
</circle><path id="path21" d="M 867.3439006477053 52.43979354784695
c 0 27.629767050961327 -6.760474916724579 7.936209684850595 -14.696684601575175 7.936209684850595
S 837.9505314445549 80.06956059880828 837.9505314445549 52.43979354784695
s 6.760474916724579 -7.936209684850595 14.696684601575175 -7.936209684850595
S 867.3439006477053 24.810026496885627 867.3439006477053 52.43979354784695
z" fill="none" stroke="none"></path>
<circle cx="0" cy="0" r="7.153859455891789" fill="#fefefe">
  <animateMotion begin="-1.2258635741162704s" dur="20s" repeatCount="indefinite">
    <mpath xlink:href="#path21"></mpath>
  </animateMotion>
</circle><path id="path22" d="M 2204.362987458422 156.45454864647704
c 0 32.67900532727573 -7.9959268353972535 9.38652280677069 -17.38244964216794 9.38652280677069
S 2169.598088174086 189.13355397375278 2169.598088174086 156.45454864647704
s 7.9959268353972535 -9.38652280677069 17.38244964216794 -9.38652280677069
S 2204.362987458422 123.7755433192013 2204.362987458422 156.45454864647704
z" fill="none" stroke="none"></path>
<circle cx="0" cy="0" r="6.300046933176431" fill="#456caa">
  <animateMotion begin="-0.23875576096155982s" dur="20s" repeatCount="indefinite">
    <mpath xlink:href="#path22"></mpath>
  </animateMotion>
</circle><path id="path23" d="M 2469.600160411771 55.12017261887236
c 0 24.800982619439036 -6.068325534543594 7.1236864970729155 -13.192012031616509 7.1236864970729155
S 2443.2161363485384 79.9211552383114 2443.2161363485384 55.12017261887236
s 6.068325534543594 -7.1236864970729155 13.192012031616509 -7.1236864970729155
S 2469.600160411771 30.319189999433323 2469.600160411771 55.12017261887236
z" fill="none" stroke="none"></path>
<circle cx="0" cy="0" r="7.258539347635327" fill="#c2d2ee">
  <animateMotion begin="-1.8956656208606448s" dur="20s" repeatCount="indefinite">
    <mpath xlink:href="#path23"></mpath>
  </animateMotion>
</circle><path id="path24" d="M 1174.28925175649 26.470567786450445
c 0 33.735207411762765 -8.25435926032493 9.689900001251006 -17.944259261575937 9.689900001251006
S 1138.400733233338 60.20577519821321 1138.400733233338 26.470567786450445
s 8.25435926032493 -9.689900001251006 17.944259261575937 -9.689900001251006
S 1174.28925175649 -7.26463962531232 1174.28925175649 26.470567786450445
z" fill="none" stroke="none"></path>
<circle cx="0" cy="0" r="4.299880413837152" fill="#fefefe">
  <animateMotion begin="-10.821654573578044s" dur="20s" repeatCount="indefinite">
    <mpath xlink:href="#path24"></mpath>
  </animateMotion>
</circle><path id="path25" d="M 454.3552252337227 257.92320731351106
c 0 20.207225622539656 -4.94432116296183 5.804203104346498 -10.748524267308328 5.804203104346498
S 432.8581766991061 278.13043293605074 432.8581766991061 257.92320731351106
s 4.94432116296183 -5.804203104346498 10.748524267308328 -5.804203104346498
S 454.3552252337227 237.7159816909714 454.3552252337227 257.92320731351106
z" fill="none" stroke="none"></path>
<circle cx="0" cy="0" r="5.466200103357629" fill="#c2d2ee">
  <animateMotion begin="-3.7416409214633317s" dur="20s" repeatCount="indefinite">
    <mpath xlink:href="#path25"></mpath>
  </animateMotion>
</circle><path id="path26" d="M 685.1195570771295 265.7613885088088
c 0 24.029600892428604 -5.879583197083594 6.902119405272046 -12.78170260235564 6.902119405272046
S 659.5561518724182 289.7909894012374 659.5561518724182 265.7613885088088
s 5.879583197083594 -6.902119405272046 12.78170260235564 -6.902119405272046
S 685.1195570771295 241.7317876163802 685.1195570771295 265.7613885088088
z" fill="none" stroke="none"></path>
<circle cx="0" cy="0" r="5.303212089301742" fill="#456caa">
  <animateMotion begin="-3.019191229222047s" dur="20s" repeatCount="indefinite">
    <mpath xlink:href="#path26"></mpath>
  </animateMotion>
</circle><path id="path27" d="M 377.0397046335912 46.9481007354262
c 0 22.257112693324355 -5.445889276026171 6.393000454465506 -11.838889730491678 6.393000454465506
S 353.3619251726078 69.20521342875055 353.3619251726078 46.9481007354262
s 5.445889276026171 -6.393000454465506 11.838889730491678 -6.393000454465506
S 377.0397046335912 24.690988042101846 377.0397046335912 46.9481007354262
z" fill="none" stroke="none"></path>
<circle cx="0" cy="0" r="7.181285694302798" fill="#fefefe">
  <animateMotion begin="-5.4609972929419826s" dur="20s" repeatCount="indefinite">
    <mpath xlink:href="#path27"></mpath>
  </animateMotion>
</circle><path id="path28" d="M 1070.261161268513 74.9259743020609
c 0 30.829072775048036 -7.543283764107498 8.855159201343586 -16.398442965451082 8.855159201343586
S 1037.4642753376108 105.75504707710893 1037.4642753376108 74.9259743020609
s 7.543283764107498 -8.855159201343586 16.398442965451082 -8.855159201343586
S 1070.261161268513 44.09690152701286 1070.261161268513 74.9259743020609
z" fill="none" stroke="none"></path>
<circle cx="0" cy="0" r="6.705646236225658" fill="#88a2ce">
  <animateMotion begin="-3.573424890107315s" dur="20s" repeatCount="indefinite">
    <mpath xlink:href="#path28"></mpath>
  </animateMotion>
</circle><path id="path29" d="M 463.0581180304395 223.41608101691924
c 0 33.72277975905634 -8.251318451683996 9.686330356324694 -17.93764880800869 9.686330356324694
S 427.1828204144221 257.13886077597556 427.1828204144221 223.41608101691924
s 8.251318451683996 -9.686330356324694 17.93764880800869 -9.686330356324694
S 463.0581180304395 189.6933012578629 463.0581180304395 223.41608101691924
z" fill="none" stroke="none"></path>
<circle cx="0" cy="0" r="5.140198516403928" fill="#c2d2ee">
  <animateMotion begin="-1.6996430588244538s" dur="20s" repeatCount="indefinite">
    <mpath xlink:href="#path29"></mpath>
  </animateMotion>
</circle></g>
</svg>