<svg enable-background="new 0 0 1000 150" viewBox="0 0 1000 150" xmlns="http://www.w3.org/2000/svg" width="100%" height="100%"><g fill="#FFFFFF"><path d="m505.3 81.9c.2 0 .3 0 .5.1s.3.2.5.3l2.7 2.9c-1.2 1.6-2.7 2.7-4.5 3.5s-3.9 1.2-6.4 1.2c-2.2 0-4.3-.4-6-1.1-1.8-.8-3.3-1.8-4.5-3.2-1.2-1.3-2.2-2.9-2.8-4.8-.7-1.8-1-3.8-1-6s.4-4.2 1.1-6.1c.7-1.8 1.7-3.4 3-4.8 1.3-1.3 2.9-2.4 4.7-3.1s3.8-1.1 6-1.1c1.1 0 2.1.1 3.1.3s1.9.5 2.7.8c.9.3 1.6.8 2.4 1.2.7.5 1.3 1 1.9 1.6l-2.3 3.1c-.1.2-.3.4-.5.5-.2.2-.5.2-.8.2-.2 0-.5-.1-.7-.2s-.4-.2-.7-.4c-.2-.2-.5-.3-.8-.5s-.6-.4-1-.5c-.4-.2-.9-.3-1.4-.4s-1.2-.2-1.9-.2c-1.1 0-2.2.2-3.1.6s-1.8 1-2.4 1.8c-.7.8-1.2 1.8-1.6 3s-.6 2.5-.6 4 .2 2.9.6 4c.4 1.2 1 2.2 1.7 3s1.5 1.4 2.5 1.8c.9.4 2 .6 3 .6.6 0 1.2 0 1.7-.1s1-.2 1.4-.3.9-.3 1.3-.6c.4-.2.8-.5 1.2-.9.2-.1.3-.2.5-.3.1.1.3.1.5.1"/><path d="m539.4 89.5h-6.3c-.6 0-1.1-.2-1.5-.5s-.8-.8-1.2-1.4l-4.9-9.2c-.3-.6-.7-1-1.1-1.2s-.9-.3-1.5-.3h-3.1v12.6h-6.8v-29.5h6.9v12h2.5c.5 0 1-.1 1.3-.3.4-.2.7-.5 1-1l5.3-8.9c.3-.5.7-.9 1.1-1.3.4-.3 1-.5 1.6-.5h5.9l-7.2 11.6c-.3.5-.7 1-1.2 1.3-.5.4-1 .6-1.6.9.9.2 1.7.6 2.3 1.2s1.2 1.3 1.8 2.3z"/><path d="m568.9 60v29.5h-6.9v-16.5c0-.8 0-1.6.1-2.4 0-.9.1-1.8.3-2.7-.3.9-.6 1.7-1 2.4s-.7 1.4-1.1 1.9l-9 15.3c-.1.2-.3.5-.5.7s-.4.5-.7.7-.5.4-.8.5-.6.2-.9.2h-5.2v-29.6h6.9v16.5c0 .8 0 1.6-.1 2.4 0 .9-.1 1.8-.3 2.7.3-.9.6-1.6 1-2.4.4-.7.7-1.4 1.1-1.9l9-15.3c.1-.2.3-.5.5-.7s.4-.5.7-.7.5-.4.8-.5.6-.2.9-.2h5.2z"/><path d="m601.5 60v29.5h-6.9v-16.5c0-.8 0-1.6.1-2.4 0-.9.1-1.8.3-2.7-.3.9-.6 1.7-1 2.4s-.7 1.4-1.1 1.9l-9 15.3c-.1.2-.3.5-.5.7s-.4.5-.7.7-.5.4-.8.5-.6.2-.9.2h-5.2v-29.6h6.9v16.5c0 .8 0 1.6-.1 2.4 0 .9-.1 1.8-.3 2.7.3-.9.6-1.6 1-2.4.4-.7.7-1.4 1.1-1.9l9-15.3c.1-.2.3-.5.5-.7s.4-.5.7-.7.5-.4.8-.5.6-.2.9-.2h5.2zm-12.5-4.6c.5 0 .8 0 1.1-.1s.5-.2.7-.4.3-.5.3-.9c.1-.4.1-.9.1-1.4h3.7c.2 0 .4 0 .6.2.2.1.3.2.4.4s.2.3.2.5c.1.2.1.4.1.6 0 .7-.2 1.3-.5 1.8-.4.5-.9 1-1.5 1.3-.6.4-1.4.6-2.3.8s-1.9.3-2.9.3c-1.1 0-2-.1-2.9-.3s-1.6-.4-2.3-.8c-.6-.4-1.1-.8-1.5-1.3s-.5-1.1-.5-1.8c0-.2 0-.4.1-.6s.1-.4.2-.5c.1-.2.2-.3.4-.4s.3-.2.6-.2h3.7c0 .6 0 1.1.1 1.4.1.4.2.7.3.9.2.2.4.4.7.4.2 0 .6.1 1.1.1"/><path d="m640.8 60v29.5h-6.9v-11.1c-1.6.4-3.1.6-4.6.8s-2.8.2-4.1.1-2.4-.4-3.4-.8-1.9-1-2.6-1.8-1.3-1.7-1.7-2.9-.6-2.5-.6-4.1v-9.7h6.9v9.8c0 1 .1 1.8.4 2.5s.7 1.2 1.5 1.6c.7.4 1.7.5 3 .5s3-.2 5.1-.7v-13.7z"/><path d="m674 89.5h-5.3c-.6 0-1.1-.1-1.4-.4-.4-.3-.6-.6-.8-1.1l-1.7-5.1h-11.2l-1.7 5.1c-.1.4-.4.7-.8 1s-.9.5-1.4.5h-5.4l11.2-29.5h7zm-10.9-11.3-2.7-8.1c-.2-.5-.4-1.1-.6-1.8s-.5-1.4-.7-2.3c-.2.8-.4 1.6-.6 2.3s-.4 1.3-.6 1.8l-2.7 8h7.9z"/><path d="m696.2 81.9c.2 0 .3 0 .5.1s.3.2.5.3l2.7 2.9c-1.2 1.6-2.7 2.7-4.5 3.5s-3.9 1.2-6.4 1.2c-2.2 0-4.3-.4-6-1.1-1.8-.8-3.3-1.8-4.5-3.2-1.2-1.3-2.2-2.9-2.8-4.8-.7-1.8-1-3.8-1-6s.4-4.2 1.1-6.1c.7-1.8 1.7-3.4 3-4.8 1.3-1.3 2.9-2.4 4.7-3.1s3.8-1.1 6-1.1c1.1 0 2.1.1 3.1.3s1.9.5 2.7.8c.9.3 1.6.8 2.3 1.2.7.5 1.4 1 1.9 1.6l-2.3 3.1c-.1.2-.3.4-.5.5-.2.2-.5.2-.8.2-.2 0-.5-.1-.7-.2s-.4-.2-.7-.4c-.2-.2-.5-.3-.8-.5s-.6-.4-1-.5c-.4-.2-.9-.3-1.4-.4s-1.2-.2-1.9-.2c-1.1 0-2.2.2-3.1.6s-1.8 1-2.4 1.8c-.7.8-1.2 1.8-1.6 3s-.6 2.5-.6 4 .2 2.9.6 4c.4 1.2 1 2.2 1.7 3s1.5 1.4 2.5 1.8c.9.4 2 .6 3 .6.6 0 1.2 0 1.7-.1s1-.2 1.4-.3.9-.3 1.3-.6c.4-.2.8-.5 1.2-.9.2-.1.3-.2.5-.3.2.1.4.1.6.1"/><path d="m732.2 74.7c0 2.1-.4 4.1-1.1 6-.7 1.8-1.8 3.4-3.1 4.8s-2.9 2.4-4.8 3.2-4 1.2-6.3 1.2-4.4-.4-6.3-1.2-3.5-1.8-4.9-3.2c-1.3-1.4-2.4-3-3.1-4.8s-1.1-3.8-1.1-6c0-2.1.4-4.1 1.1-6 .7-1.8 1.8-3.4 3.1-4.8 1.3-1.3 3-2.4 4.9-3.2s4-1.2 6.3-1.2 4.4.4 6.3 1.2 3.5 1.8 4.8 3.2 2.4 2.9 3.1 4.8c.8 1.9 1.1 3.9 1.1 6m-7 0c0-1.5-.2-2.8-.6-3.9-.4-1.2-.9-2.2-1.6-3s-1.6-1.4-2.6-1.9c-1-.4-2.2-.7-3.5-.7s-2.5.2-3.5.7c-1 .4-1.9 1.1-2.6 1.9s-1.3 1.8-1.6 3c-.4 1.2-.6 2.5-.6 3.9 0 1.5.2 2.8.6 4s.9 2.2 1.6 3 1.6 1.4 2.6 1.9c1 .4 2.2.6 3.5.6s2.5-.2 3.5-.6 1.9-1 2.6-1.9c.7-.8 1.3-1.8 1.6-3 .4-1.2.6-2.5.6-4"/><path d="m748.1 60c2 0 3.8.2 5.2.6s2.6.9 3.5 1.6 1.6 1.5 2 2.5.6 2.1.6 3.3c0 .7-.1 1.3-.3 1.9s-.5 1.2-.9 1.7-.9 1-1.6 1.5c-.6.4-1.4.8-2.3 1.2 1.9.5 3.4 1.2 4.3 2.3s1.4 2.4 1.4 4.1c0 1.3-.2 2.4-.7 3.5s-1.2 2-2.1 2.8-2.1 1.4-3.5 1.9-3 .7-4.7.7h-11.8v-29.6zm-4 5.1v7.3h3.6c.8 0 1.4-.1 2-.2s1.1-.3 1.6-.6c.4-.3.7-.6 1-1.1.2-.5.3-1.1.3-1.8s-.1-1.3-.3-1.8-.4-.8-.8-1.1-.8-.5-1.4-.6-1.2-.2-2-.2h-4zm4.8 19.2c.9 0 1.6-.1 2.2-.3s1-.5 1.4-.9c.3-.4.5-.8.7-1.2.1-.5.2-.9.2-1.4s-.1-1-.2-1.5c-.1-.4-.4-.8-.7-1.1s-.8-.5-1.4-.7-1.3-.2-2.1-.2h-4.8v7.4h4.7z"/><path d="m794.4 74.7c0 2.1-.4 4.1-1.1 6-.7 1.8-1.8 3.4-3.1 4.8s-2.9 2.4-4.8 3.2-4 1.2-6.3 1.2-4.4-.4-6.3-1.2-3.5-1.8-4.9-3.2c-1.3-1.4-2.4-3-3.1-4.8s-1.1-3.8-1.1-6c0-2.1.4-4.1 1.1-6 .7-1.8 1.8-3.4 3.1-4.8 1.3-1.3 3-2.4 4.9-3.2s4-1.2 6.3-1.2 4.4.4 6.3 1.2 3.5 1.8 4.8 3.2 2.4 2.9 3.1 4.8 1.1 3.9 1.1 6m-7 0c0-1.5-.2-2.8-.6-3.9-.4-1.2-.9-2.2-1.6-3s-1.6-1.4-2.6-1.9c-1-.4-2.2-.7-3.5-.7s-2.5.2-3.5.7c-1 .4-1.9 1.1-2.6 1.9s-1.3 1.8-1.6 3c-.4 1.2-.6 2.5-.6 3.9 0 1.5.2 2.8.6 4s.9 2.2 1.6 3 1.6 1.4 2.6 1.9c1 .4 2.2.6 3.5.6s2.5-.2 3.5-.6 1.9-1 2.6-1.9c.7-.8 1.3-1.8 1.6-3 .4-1.2.6-2.5.6-4"/><path d="m825.3 60v29.5h-6.9v-16.5c0-.8 0-1.6.1-2.4 0-.9.1-1.8.3-2.7-.3.9-.6 1.7-1 2.4s-.7 1.4-1.1 1.9l-9 15.3c-.1.2-.3.5-.5.7s-.4.5-.7.7-.5.4-.8.5-.6.2-.9.2h-5.2v-29.6h6.9v16.5c0 .8 0 1.6-.1 2.4 0 .9-.1 1.8-.3 2.7.3-.9.7-1.6 1-2.4.4-.7.7-1.4 1.1-1.9l9-15.3c.1-.2.3-.5.5-.7s.4-.5.7-.7.5-.4.8-.5.6-.2.9-.2h5.2zm-12.6-4.6c.5 0 .8 0 1.1-.1s.5-.2.7-.4.3-.5.3-.9c.1-.4.1-.9.1-1.4h3.7c.2 0 .4 0 .6.2.2.1.3.2.4.4s.2.3.2.5c.1.2.1.4.1.6 0 .7-.2 1.3-.5 1.8-.4.5-.9 1-1.5 1.3-.6.4-1.4.6-2.3.8s-1.9.3-2.9.3c-1.1 0-2-.1-2.9-.3s-1.6-.4-2.3-.8c-.6-.4-1.1-.8-1.5-1.3s-.5-1.1-.5-1.8c0-.2 0-.4.1-.6s.1-.4.2-.5c.1-.2.2-.3.4-.4s.3-.2.6-.2h3.7c0 .6 0 1.1.1 1.4.1.4.2.7.3.9.2.2.4.4.7.4.3 0 .7.1 1.1.1"/><path d="m840.7 62.8c1.1-1 2.6-1.7 4.2-2.3 1.7-.6 3.5-.8 5.5-.8 1.7 0 3.2.2 4.5.6s2.5.9 3.4 1.6 1.7 1.5 2.2 2.5.8 2 .8 3.2c0 1.3-.3 2.6-.9 3.7s-1.5 2.1-2.7 2.8c.6.3 1.2.7 1.7 1.1s1 .9 1.3 1.4c.4.5.7 1.1.9 1.6.2.6.3 1.2.3 1.9 0 1.4-.3 2.6-.8 3.8s-1.2 2.2-2.2 3.1-2.2 1.6-3.6 2.1-3 .8-4.9.8c-1 0-2-.1-3.1-.3-1-.2-2-.5-3-.8s-1.8-.8-2.7-1.2c-.8-.5-1.6-1-2.2-1.6l2-3.2c.2-.2.4-.4.6-.6.3-.2.6-.2.9-.2.4 0 .9.1 1.3.4s1 .5 1.5.9c.6.3 1.2.6 2 .9s1.7.4 2.7.4c.8 0 1.4-.1 2-.2s1.1-.4 1.5-.7.7-.7.9-1.3c.2-.5.3-1.1.3-1.9 0-.6-.1-1.1-.4-1.5s-.6-.8-1.1-1.1c-.4-.3-1-.5-1.6-.7-.6-.1-1.3-.2-2.1-.2h-4.3v-5.3h3.8c1.7 0 3-.3 3.8-.9s1.2-1.4 1.2-2.5c0-.9-.4-1.7-1.1-2.2s-1.9-.8-3.4-.8c-.9 0-1.6.1-2.3.3s-1.2.4-1.7.7c-.5.2-1 .5-1.3.7-.4.2-.7.3-1.1.3-.3 0-.6-.1-.9-.2-.2-.2-.4-.4-.6-.7z"/><path d="m893.6 89.5h-5.3c-.6 0-1.1-.1-1.4-.4-.4-.3-.6-.6-.8-1.1l-1.7-5.1h-11.4l-1.7 5.1c-.1.4-.4.7-.8 1s-.9.5-1.4.5h-5.4l11.4-29.5h7zm-10.9-11.3-2.7-8.1c-.2-.5-.4-1.1-.6-1.8s-.5-1.4-.7-2.3c-.2.8-.4 1.6-.6 2.3s-.4 1.3-.6 1.8l-2.7 8h7.9z"/><path d="m907.7 60c2 0 3.8.2 5.2.6s2.6.9 3.5 1.6 1.6 1.5 2 2.5.6 2.1.6 3.3c0 .7-.1 1.3-.3 1.9s-.5 1.2-.9 1.7-.9 1-1.6 1.5c-.6.4-1.4.8-2.3 1.2 1.9.5 3.4 1.2 4.3 2.3s1.4 2.4 1.4 4.1c0 1.3-.2 2.4-.7 3.5s-1.2 2-2.1 2.8-2.1 1.4-3.5 1.9-3 .7-4.7.7h-11.8v-29.6zm-4 5.1v7.3h3.6c.8 0 1.4-.1 2-.2s1.1-.3 1.6-.6c.4-.3.8-.6 1-1.1s.3-1.1.3-1.8-.1-1.3-.3-1.8-.4-.8-.8-1.1-.8-.5-1.4-.6-1.2-.2-2-.2h-4zm4.8 19.2c.9 0 1.6-.1 2.2-.3s1-.5 1.3-.9.5-.8.7-1.2c.1-.5.2-.9.2-1.4s-.1-1-.2-1.5c-.1-.4-.4-.8-.7-1.1s-.8-.5-1.4-.7-1.3-.2-2.1-.2h-4.8v7.4h4.8z"/><path d="m954 74.7c0 2.1-.4 4.1-1.1 6-.7 1.8-1.8 3.4-3.1 4.8s-2.9 2.4-4.8 3.2-4 1.2-6.3 1.2-4.4-.4-6.3-1.2-3.5-1.8-4.9-3.2c-1.3-1.4-2.4-3-3.1-4.8s-1.1-3.8-1.1-6c0-2.1.4-4.1 1.1-6 .7-1.8 1.8-3.4 3.1-4.8 1.3-1.3 3-2.4 4.9-3.2s4-1.2 6.3-1.2 4.4.4 6.3 1.2 3.5 1.8 4.8 3.2 2.4 2.9 3.1 4.8 1.1 3.9 1.1 6m-7 0c0-1.5-.2-2.8-.6-3.9-.4-1.2-.9-2.2-1.6-3s-1.6-1.4-2.6-1.9c-1-.4-2.2-.7-3.5-.7s-2.5.2-3.5.7c-1 .4-1.9 1.1-2.6 1.9s-1.3 1.8-1.6 3c-.4 1.2-.6 2.5-.6 3.9 0 1.5.2 2.8.6 4s.9 2.2 1.6 3 1.6 1.4 2.6 1.9c1 .4 2.2.6 3.5.6s2.5-.2 3.5-.6 1.9-1 2.6-1.9c.7-.8 1.3-1.8 1.6-3 .4-1.2.6-2.5.6-4"/><path d="m988 84.4v10.1c0 .6-.2 1-.6 1.4-.4.3-.9.5-1.6.5h-4.1v-6.9h-19.8v5c0 .6-.2 1-.6 1.4-.4.3-.9.5-1.6.5h-4.1v-12h3.3c.3-.2.7-.5 1-1 .4-.4.7-1.1 1-1.8.3-.8.6-1.8.9-3s.6-2.7.8-4.4.4-3.8.6-6.1.3-5 .4-8.1h19.9v24.4zm-11.3 0v-19.3h-6.5c-.2 2.6-.4 4.8-.6 6.9-.3 2-.6 3.8-.9 5.4s-.7 2.9-1.1 4.1-.9 2.2-1.3 3h10.4z"/><path d="m478.7 60v29.5h-6.9v-12.5h-12v12.5h-6.9v-29.5h6.9v12.3h12v-12.3z"/><path d="m413.6 60v29.5h-6v-17c0-.4 0-.8 0-1.3s.1-.9.1-1.4l-7.8 15.2c-.2.5-.6.8-1 1.1-.4.2-.9.4-1.4.4h-.9c-.5 0-1-.1-1.4-.4-.4-.2-.7-.6-1-1.1l-7.8-15.2c0 .5.1 1 .1 1.4v1.3 17h-6v-29.5h5.2.8c.2 0 .4.1.6.1.2.1.3.2.5.3.1.1.3.3.4.6l7.6 15c.3.5.5 1 .8 1.6s.5 1.1.7 1.7c.2-.6.5-1.2.7-1.7.3-.6.5-1.1.8-1.6l7.6-14.9c.1-.3.3-.5.4-.6s.3-.2.5-.3.4-.1.6-.1h.8 5.1z"/><path d="m446.2 60v29.5h-6.9v-16.5c0-.8 0-1.6.1-2.4 0-.9.1-1.8.3-2.7-.3.9-.6 1.7-1 2.4s-.7 1.4-1.1 1.9l-9 15.3c-.1.2-.3.5-.5.7s-.4.5-.7.7-.5.4-.8.5-.6.2-.9.2h-5.2v-29.6h6.9v16.5c0 .8 0 1.6-.1 2.4 0 .9-.1 1.8-.3 2.7.3-.9.7-1.6 1-2.4.4-.7.7-1.4 1.1-1.9l9-15.3c.1-.2.3-.5.5-.7s.4-.5.7-.7.5-.4.8-.5.6-.2.9-.2h5.2z"/><path d="m236.4 52.1-49.6 41.4-5.7-4.3 13.4-29.7-6.2-.2-3.9-10.8-73.2 89.8-6.2-3.9 32.5-67.2-28 26.4-5.9-4.3 11.5-23.6-31.5 28.1-5.8-4.2 28-61.5-88.9 74.9-4.9-5.8 102.5-86.4 5.7 4.3-27.6 60.4 32.3-28.8 5.7 4.3-10.8 22.4 28.1-26.4 5.8 4.3-27.2 56.2 60.5-74.3 6.7 18.6 12.5.3-11 24.4 36.3-30.3z"/><path d="m274.9 69.1 6.7-5.7h3.1v19.1h3.9v2.8h-12.1v-2.8h4.4v-12.7c0-.5 0-1 0-1.6l-3.2 2.6c-.2.1-.4.2-.5.3-.2 0-.3 0-.5 0s-.3-.1-.4-.2-.2-.2-.3-.2z"/><path d="m291.8 70.4c0-1 .2-1.9.5-2.8.4-.9.9-1.6 1.5-2.3.7-.7 1.4-1.2 2.4-1.5.9-.4 1.9-.6 3-.6s2.1.2 3 .5c.9.4 1.7.9 2.3 1.5s1.1 1.4 1.5 2.3c.3.9.5 1.9.5 2.9 0 .7-.1 1.3-.2 1.9s-.3 1.2-.5 1.8-.5 1.1-.8 1.6-.6 1.1-1 1.6l-5 7.2c-.2.2-.4.5-.8.6-.3.2-.7.2-1.2.2h-3.4l6.8-8.5c.2-.2.3-.4.5-.6s.3-.4.4-.6c-.5.3-1.1.6-1.7.7-.6.2-1.2.2-1.9.2-.8 0-1.5-.1-2.2-.4s-1.4-.7-1.9-1.2c-.6-.5-1-1.2-1.4-2-.2-.5-.4-1.5-.4-2.5m3.7-.3c0 1.2.3 2.1.9 2.8.6.6 1.5 1 2.7 1 .6 0 1.1-.1 1.6-.3s.9-.5 1.2-.8.6-.7.7-1.2c.2-.4.3-.9.3-1.4 0-.6-.1-1.1-.3-1.6s-.4-.9-.8-1.2c-.3-.3-.7-.6-1.2-.7-.5-.2-1-.3-1.5-.3-.6 0-1.1.1-1.5.3-.5.2-.9.4-1.2.8-.3.3-.6.7-.7 1.2-.1.4-.2.9-.2 1.4"/><path d="m309.5 83.1 1.2-1.6c.2-.3.6-.5.9-.5s.5.1.8.2c.3.2.6.3.9.5s.7.4 1.2.5c.5.2 1 .2 1.7.2s1.3-.1 1.8-.3 1-.5 1.3-.9.6-.9.8-1.4.3-1.1.3-1.8c0-1.2-.3-2.1-1-2.8s-1.7-1-3.1-1c-1 0-2.1.2-3.2.5l-2.3-.6 1.8-10.7h10.8v1.6c0 .5-.2 1-.5 1.3s-.9.5-1.7.5h-6l-.8 4.6c1-.3 1.9-.4 2.7-.4 1.2 0 2.2.2 3 .5.9.3 1.6.8 2.2 1.4s1 1.3 1.3 2.1.5 1.7.5 2.6c0 1.2-.2 2.2-.6 3.2s-1 1.8-1.7 2.5-1.6 1.2-2.6 1.6-2.1.6-3.3.6c-.7 0-1.3-.1-2-.2-.6-.1-1.2-.3-1.7-.6-.5-.2-1-.5-1.5-.8-.5-.1-.9-.5-1.2-.8"/><path d="m326.7 79.9 1.6-.7c.4-.2.8-.2 1.2-.1s.7.3.8.6c.2.4.4.7.6 1s.5.6.8.9.7.5 1.1.7.9.2 1.5.2 1.2-.1 1.7-.3.9-.5 1.2-.8.6-.7.7-1.1c.2-.4.2-.8.2-1.2 0-.5-.1-1-.2-1.4s-.3-.8-.7-1.1-.9-.5-1.5-.7c-.7-.2-1.5-.3-2.7-.3v-2.7c.9 0 1.7-.1 2.3-.3s1.1-.4 1.4-.7c.4-.3.6-.6.7-1s.2-.8.2-1.3c0-1-.3-1.8-.9-2.4-.6-.5-1.3-.8-2.3-.8-.4 0-.9.1-1.2.2-.4.1-.7.3-1 .5s-.5.5-.7.8-.4.6-.5 1c-.2.5-.4.8-.7.9-.3.2-.7.2-1.2.1l-2-.4c.1-1 .4-2 .9-2.8.4-.8 1-1.5 1.6-2 .7-.5 1.4-.9 2.2-1.2s1.8-.4 2.7-.4c1 0 1.9.1 2.7.4s1.5.7 2.1 1.2 1 1.1 1.3 1.8.5 1.4.5 2.2c0 .7-.1 1.3-.2 1.8-.2.5-.4 1-.7 1.4s-.6.7-1.1 1c-.4.3-.9.5-1.4.7 1.3.4 2.3 1 2.9 1.9.7.9 1 1.9 1 3.2 0 1.1-.2 2.1-.6 2.9s-1 1.5-1.6 2.1c-.7.6-1.5 1-2.4 1.3s-1.9.4-2.9.4c-1.1 0-2.1-.1-2.9-.4s-1.5-.6-2.1-1.1-1.1-1.1-1.5-1.8c-.2-.5-.6-1.3-.9-2.2"/></g></svg>